<mxfile host="app.diagrams.net" agent="Mozilla/5.0 (Windows NT 10.0; Win64; x64) AppleWebKit/537.36 (KHTML, like Gecko) Chrome/134.0.0.0 Safari/537.36" version="24.7.6">
  <diagram name="Seite-1" id="TN_6OM6V_6nd4V7UoaRU">
    <mxGraphModel dx="145" dy="424" grid="1" gridSize="10" guides="1" tooltips="1" connect="1" arrows="1" fold="1" page="1" pageScale="1" pageWidth="827" pageHeight="1169" math="0" shadow="0">
      <root>
        <mxCell id="0" />
        <mxCell id="1" parent="0" />
        <mxCell id="TcD3IYLaWQvW4M791TA6-1" value="VerkÃ¤ufer(BE1)" style="rounded=0;whiteSpace=wrap;html=1;" vertex="1" parent="1">
          <mxGeometry x="380" y="40" width="120" height="60" as="geometry" />
        </mxCell>
        <mxCell id="TcD3IYLaWQvW4M791TA6-20" value="" style="edgeStyle=orthogonalEdgeStyle;rounded=0;orthogonalLoop=1;jettySize=auto;html=1;endArrow=none;endFill=0;" edge="1" parent="1" source="TcD3IYLaWQvW4M791TA6-2" target="TcD3IYLaWQvW4M791TA6-16">
          <mxGeometry relative="1" as="geometry" />
        </mxCell>
        <mxCell id="TcD3IYLaWQvW4M791TA6-2" value="Kunde(BE3)" style="rounded=0;whiteSpace=wrap;html=1;" vertex="1" parent="1">
          <mxGeometry x="590" y="210" width="120" height="60" as="geometry" />
        </mxCell>
        <mxCell id="TcD3IYLaWQvW4M791TA6-17" value="" style="edgeStyle=orthogonalEdgeStyle;rounded=0;orthogonalLoop=1;jettySize=auto;html=1;endArrow=none;endFill=0;" edge="1" parent="1" source="TcD3IYLaWQvW4M791TA6-3" target="TcD3IYLaWQvW4M791TA6-15">
          <mxGeometry relative="1" as="geometry" />
        </mxCell>
        <mxCell id="TcD3IYLaWQvW4M791TA6-3" value="Auto (BE2)" style="rounded=0;whiteSpace=wrap;html=1;" vertex="1" parent="1">
          <mxGeometry x="100" y="380" width="120" height="60" as="geometry" />
        </mxCell>
        <mxCell id="TcD3IYLaWQvW4M791TA6-18" value="" style="edgeStyle=orthogonalEdgeStyle;rounded=0;orthogonalLoop=1;jettySize=auto;html=1;endArrow=none;endFill=0;" edge="1" parent="1" source="TcD3IYLaWQvW4M791TA6-4" target="TcD3IYLaWQvW4M791TA6-15">
          <mxGeometry relative="1" as="geometry">
            <Array as="points">
              <mxPoint x="440" y="410" />
              <mxPoint x="325" y="410" />
            </Array>
          </mxGeometry>
        </mxCell>
        <mxCell id="TcD3IYLaWQvW4M791TA6-19" value="" style="edgeStyle=orthogonalEdgeStyle;rounded=0;orthogonalLoop=1;jettySize=auto;html=1;endArrow=none;endFill=0;" edge="1" parent="1" source="TcD3IYLaWQvW4M791TA6-4" target="TcD3IYLaWQvW4M791TA6-16">
          <mxGeometry relative="1" as="geometry" />
        </mxCell>
        <mxCell id="TcD3IYLaWQvW4M791TA6-4" value="Rechnung(BE4)" style="rounded=0;whiteSpace=wrap;html=1;" vertex="1" parent="1">
          <mxGeometry x="380" y="210" width="120" height="60" as="geometry" />
        </mxCell>
        <mxCell id="TcD3IYLaWQvW4M791TA6-5" value="Rechnungsposition&lt;div&gt;(BE5)&lt;/div&gt;" style="rounded=0;whiteSpace=wrap;html=1;" vertex="1" parent="1">
          <mxGeometry x="380" y="380" width="120" height="60" as="geometry" />
        </mxCell>
        <mxCell id="TcD3IYLaWQvW4M791TA6-8" value="1" style="edgeStyle=orthogonalEdgeStyle;rounded=0;orthogonalLoop=1;jettySize=auto;html=1;endArrow=none;endFill=0;" edge="1" parent="1" source="TcD3IYLaWQvW4M791TA6-7" target="TcD3IYLaWQvW4M791TA6-1">
          <mxGeometry relative="1" as="geometry" />
        </mxCell>
        <mxCell id="TcD3IYLaWQvW4M791TA6-9" value="n" style="edgeStyle=orthogonalEdgeStyle;rounded=0;orthogonalLoop=1;jettySize=auto;html=1;endArrow=none;endFill=0;" edge="1" parent="1" source="TcD3IYLaWQvW4M791TA6-7" target="TcD3IYLaWQvW4M791TA6-4">
          <mxGeometry relative="1" as="geometry" />
        </mxCell>
        <mxCell id="TcD3IYLaWQvW4M791TA6-7" value="1" style="rhombus;whiteSpace=wrap;html=1;" vertex="1" parent="1">
          <mxGeometry x="425" y="140" width="30" height="30" as="geometry" />
        </mxCell>
        <mxCell id="TcD3IYLaWQvW4M791TA6-11" value="" style="edgeStyle=orthogonalEdgeStyle;rounded=0;orthogonalLoop=1;jettySize=auto;html=1;endArrow=none;endFill=0;" edge="1" parent="1" source="TcD3IYLaWQvW4M791TA6-10" target="TcD3IYLaWQvW4M791TA6-4">
          <mxGeometry relative="1" as="geometry" />
        </mxCell>
        <mxCell id="TcD3IYLaWQvW4M791TA6-12" value="" style="edgeStyle=orthogonalEdgeStyle;rounded=0;orthogonalLoop=1;jettySize=auto;html=1;endArrow=none;endFill=0;" edge="1" parent="1" source="TcD3IYLaWQvW4M791TA6-10" target="TcD3IYLaWQvW4M791TA6-5">
          <mxGeometry relative="1" as="geometry" />
        </mxCell>
        <mxCell id="TcD3IYLaWQvW4M791TA6-10" value="4" style="rhombus;whiteSpace=wrap;html=1;" vertex="1" parent="1">
          <mxGeometry x="425" y="310" width="30" height="30" as="geometry" />
        </mxCell>
        <mxCell id="TcD3IYLaWQvW4M791TA6-15" value="2" style="rhombus;whiteSpace=wrap;html=1;" vertex="1" parent="1">
          <mxGeometry x="300" y="395" width="30" height="30" as="geometry" />
        </mxCell>
        <mxCell id="TcD3IYLaWQvW4M791TA6-16" value="3" style="rhombus;whiteSpace=wrap;html=1;" vertex="1" parent="1">
          <mxGeometry x="530" y="225" width="30" height="30" as="geometry" />
        </mxCell>
      </root>
    </mxGraphModel>
  </diagram>
</mxfile>
